<!-- icon666.com - MILLIONS vector ICONS FREE --><svg id="Layer_1" enable-background="new 0 0 472 472" viewBox="0 0 472 472" xmlns="http://www.w3.org/2000/svg"><g><g><g><path d="m256.207 204.511c-7.532-21.94-17.931-40.748-30.907-55.901l7.596-6.504c13.8 16.115 24.826 36.019 32.77 59.157z"></path></g><g><path d="m215.928 138.718c-2.506-2.386-5.125-4.686-7.783-6.836l6.289-7.775c2.867 2.319 5.689 4.799 8.389 7.369z"></path></g><g><path d="m199.164 125.505c-2.877-1.911-5.854-3.722-8.85-5.379l4.842-8.75c3.231 1.788 6.442 3.74 9.542 5.801z"></path></g><g><g><g><path d="m192.8 360.068c8.181-10.501 11.221-26.639 9.021-47.986-4.242-41.174-28.847-79.074-65.818-101.383-22.617-13.647-35.908-30.368-39.504-49.698-2.24-12.043-.277-23.223 2.677-32.047-3.271.481-6.592 1.045-9.969 1.701-3.291 5.369-13.165 23.683-8.916 44.084 3.372 16.184 14.825 30.27 34.042 41.865 39.645 23.922 66.037 64.64 70.6 108.92 1.839 17.849.288 32.604-4.618 44.161 4.359-2.972 8.519-6.19 12.485-9.617z"></path></g><g><path d="m206.048 200.249c2.692-4.063 5.698-4.31 9.018-.742l24.673 42.89c-.739-7.057-2.037-14.059-3.888-20.954-15.979-59.535-50.211-91.073-102.021-94.219-.363 2.65-.53 5.252-.482 7.765l-9.998.193c-.052-2.679.112-5.432.445-8.218-4.372.036-8.856.256-13.457.664-8.782 20.985-9.685 50.061 30.832 74.509 39.645 23.923 66.037 64.641 70.599 108.92 1.14 11.061.947 20.95-.536 29.649 7.33-9.377 13.486-19.731 18.257-30.901l-17.849-32.421c-13.032-23.67-15.07-51.784-5.593-77.135zm-81.502-54.684 9.775-2.105c.539 2.5 1.312 4.989 2.297 7.396l-9.254 3.789c-1.207-2.95-2.156-6.005-2.818-9.08zm48 52.939c-2.781-1.962-5.671-3.85-8.589-5.61-15.029-9.068-26.026-19.317-32.688-30.465l8.584-5.129c5.812 9.725 15.659 18.819 29.269 27.031 3.122 1.883 6.213 3.902 9.189 6.003zm14.769 11.972c-2.298-2.133-4.7-4.218-7.138-6.196l6.301-7.766c2.61 2.118 5.18 4.349 7.64 6.632z"></path></g></g><g><path d="m128.958 318.319c2.758.089 4.424 1.75 4.999 4.985.097 33.67-11.548 67.339-32.54 93.687l87.805-.081c6.283-8.473 15.885-13.431 26.535-13.711l5.972-10.381c-5.091-12.161-8.261-24.84-9.473-37.858-13.986 15.435-31.183 27.874-50.354 36.341-2.392 1.055-5.194.093-6.428-2.215-1.234-2.305-.483-5.172 1.722-6.577 14.669-9.342 20.654-28.169 17.791-55.959-4.243-41.175-28.848-79.074-65.818-101.383-25.256-15.239-35.223-32.957-38.521-47.888-5.834 8.799-9.402 18.816-10.636 29.908-1.901 17.08-9.39 33.373-21.105 45.948-1.393 2.198-1.718 5.532.994 7.091l16.401 9.427c2.815 2.121 3.249 4.652 1.304 7.591-4.755 5.542-5.801 9.09-5.194 10.562.751 1.821 4.903 3.034 7.016 3.202 4.346 1.24 5.548 3.901 3.606 7.982-2.397 3.199-2.636 5.022-2.427 5.54.317.787 2.272 1.675 3.743 1.913 3.793 1.241 4.982 3.725 3.566 7.452-8.888 14.453 5.369 33.188 21.764 27.383 16.9-5.984 31.844-18.161 36.021-21.751.922-.795 2.083-1.208 3.257-1.208z"></path></g><g><path d="m75.817 134.716c-26.052 10.048-44.933 29.764-56.224 58.759-25.59 65.718 1.324 139.203 61.458 174.685-2.33-4.969-4.009-10.564-5.028-16.774-7.766-2.148-14.36-7.614-18.076-15.157-3.472-7.047-3.867-14.854-1.235-22.053-2.1-1.203-4.199-3.04-5.348-5.822-1.15-2.784-1.108-5.834.117-9.117-3.229-1.321-6.669-3.623-8.316-7.616-1.904-4.617-.82-10.026 3.221-16.13l-11.472-6.593c-7.407-4.259-9.762-15.795-3.68-22.201 10.463-11.063 17.153-25.485 18.837-40.613 1.825-16.401 8.45-31.324 19.192-43.288.276-11.205 3.437-21.026 6.554-28.08z"></path></g></g></g><g><g><g><path d="m348.353 292.402h11.858v9.999h-11.858z" transform="matrix(.482 -.876 .876 .482 -77.105 464.34)"></path></g><g><path d="m336.788 314.509h10.646v9.999h-10.646z" transform="matrix(.482 -.876 .876 .482 -102.773 465.124)"></path></g><g><path d="m299.705 351.13h44.49v9.999h-44.49z" transform="matrix(.482 -.876 .876 .482 -145.292 466.422)"></path></g><g><path d="m279.768 311.98 13.351 23.209 34.48-62.628c9.798-17.798 12.628-38.416 8.211-57.999z"></path></g><g><path d="m219.94 432.721c-9.105-.057-8.875 13.968.119 14 4.246-.381 6.56-2.694 6.94-6.94-.013-3.88-3.18-7.047-7.059-7.06z"></path></g></g><g><path d="m328.764 432.721c-.008 0-.017 0-.025 0-3.879.014-7.046 3.181-7.06 7.06-.013 3.459 3.421 6.94 6.94 6.94 3.879-.014 7.046-3.181 7.06-7.06-.379-4.236-2.684-6.549-6.915-6.94z"></path></g></g><g><g><g><path d="m411.253 165h12.794v10h-12.794z"></path></g><g><path d="m307.222 165h12.794v10h-12.794z"></path></g></g><g><g><g><path d="m462.12 97.318-9.678-2.52c2.128-8.175 3.208-16.426 3.208-24.523 0-13.134-3.044-25.736-9.048-37.459l8.9-4.559c6.733 13.146 10.147 27.283 10.147 42.018.001 8.948-1.187 18.046-3.529 27.043z"></path></g><g><path d="m455.63 115.896-9.159-4.016c1.245-2.839 2.378-5.716 3.369-8.55l9.44 3.299c-1.075 3.076-2.303 6.193-3.65 9.267z"></path></g><g><path d="m447.775 131.23-8.627-5.057c1.262-2.153 2.466-4.33 3.578-6.472l8.875 4.607c-1.191 2.295-2.478 4.624-3.826 6.922z"></path></g><g><g><path d="m367.385 49.863c-12.909 0-23.411 10.171-23.411 22.673s10.502 22.673 23.411 22.673c12.908 0 23.41-10.171 23.41-22.673s-10.502-22.673-23.41-22.673z"></path></g><path d="m436.308 70.275c0-35.993-30.919-65.275-68.923-65.275s-68.923 29.282-68.923 65.275c0 42.585 38.383 79.542 56.659 94.725h-21.838v10h65.437v-10h-18.705c18.474-14.875 56.293-50.701 56.293-94.725zm-102.334 2.261c0-18.016 14.988-32.673 33.411-32.673 18.422 0 33.41 14.657 33.41 32.673s-14.988 32.673-33.41 32.673c-18.423 0-33.411-14.657-33.411-32.673z"></path></g></g></g></g><g><g><path d="m461.65 457h10.35v10h-10.35z"></path></g><g><path d="m451.65 208h14.35v10h-14.35z"></path><path d="m454.65 317.786h10.991v10h-10.991z"></path><path d="m411.979 218h32.671v-10h-32.671v-.522c-12.088 2.341-21.243 13.004-21.243 25.765v223.137c0 .209.017.415.029.621h-41.178c3.959-4.86 6.358-11.116 6.358-17.95 0-7.513-2.938-14.589-8.06-19.413-4.823-4.543-11.287-6.815-18.209-6.401-1.897.119-3.688-.854-4.633-2.498l-112.853-196.176c-4.417 19.583-1.587 40.201 8.211 57.999l83.82 152.248c.808 1.466.828 3.239.053 4.724-2.039 3.907-2.456 6.631-2.456 9.517 0 6.834 2.399 13.091 6.358 17.95h-68.351c3.959-4.86 6.358-11.116 6.358-17.95 0-2.886-.417-5.608-2.456-9.517-.774-1.484-.754-3.258.053-4.724l24.513-44.525-13.603-24.708-31.733 55.161c-1.805 1.972-3.87 2.23-6.236 2.449-14.206 1.313-24.667 12.059-24.667 25.863 0 6.834 2.399 13.091 6.358 17.95h-155.731v10h408.969v-10h-39.7c.012-.207.029-.412.029-.621v-73.421h53.421v-10h-53.421v-17.586h53.541v-10h-53.541v-17.586h31.67v-10h-31.67v-17.587h53.781v-10h-53.781v-17.586h53.901v-10h-53.901v-17.586h54.021v-10h-54.021zm-137.554 131.66c-2.482 0-4.495-2.055-4.495-4.591s2.012-4.591 4.495-4.591 4.495 2.055 4.495 4.591-2.012 4.591-4.495 4.591zm-42.375 102.111c-2.944 2.945-7.797 5.418-12.025 4.949-24.524-2.721-21.812-34-.049-34 9.354.033 16.991 7.67 17.024 17.024.016 4.549-1.742 8.82-4.95 12.027zm96.604 4.95c-9.059 0-17.008-7.888-16.976-16.976.033-9.354 7.67-16.991 17.024-17.024 9.06 0 17.007 7.889 16.976 16.976-.032 9.354-7.67 16.991-17.024 17.024z"></path></g><g><path d="m20.068 457h11.613v10h-11.613z"></path></g><g><path d="m0 457h10.068v10h-10.068z"></path></g></g><g><g><path d="m152.373 43.322h10v14.169h-10z"></path></g><g><path d="m152.373 76.322h10v14.169h-10z"></path></g><g><path d="m166.788 61.907h14.169v10h-14.169z"></path></g><g><path d="m133.788 61.907h14.169v10h-14.169z"></path></g></g><g><g><path d="m62.373 5h10v14.17h-10z"></path></g><g><path d="m62.373 38h10v14.17h-10z"></path></g><g><path d="m76.788 23.585h14.169v10h-14.169z"></path></g><g><path d="m43.788 23.585h14.169v10h-14.169z"></path></g></g><g><g><path d="m18.585 75h10v14.17h-10z"></path></g><g><path d="m18.585 108h10v14.17h-10z"></path></g><g><path d="m33 93.585h14.169v10h-14.169z"></path></g><g><path d="m0 93.585h14.169v10h-14.169z"></path></g></g></g></svg>